<svg width="40" height="38" viewBox="0 0 40 38" fill="none" xmlns="http://www.w3.org/2000/svg">
<path d="M22.993 35.4548L21.011 37.3865C20.1719 38.2045 18.8149 38.2045 17.9846 37.3865L0.629394 20.4793C-0.209798 19.6613 -0.209798 18.3387 0.629394 17.5294L17.9846 0.613465C18.8238 -0.204488 20.1808 -0.204488 21.011 0.613465L22.993 2.54523C23.8411 3.37188 23.8232 4.72063 22.9573 5.52988L12.1995 15.5194H37.8574C39.0448 15.5194 40 16.4504 40 17.6077V20.3923C40 21.5496 39.0448 22.4807 37.8574 22.4807H12.1995L22.9573 32.4701C23.8322 33.2794 23.85 34.6281 22.993 35.4548Z" fill="black"/>
</svg>
